<?xml version="1.0" encoding="UTF-8" standalone="no"?>
<!-- Created with Inkscape (http://www.inkscape.org/) -->

<svg
   width="228"
   height="228"
   viewBox="0 0 60.325 60.325"
   version="1.1"
   id="svg5"
   xmlns="http://www.w3.org/2000/svg"
   xmlns:svg="http://www.w3.org/2000/svg">
  <defs
     id="defs2" />
  <g
     id="layer1"
     transform="translate(-22.33293,-16.834936)">
    <circle
       style="opacity:1;fill:#ffffff;stroke:none;stroke-width:5;stroke-linecap:round;stroke-linejoin:round;stroke-miterlimit:4;stroke-dasharray:none;paint-order:stroke fill markers"
       id="path9933"
       cx="52.49543"
       cy="46.997437"
       r="28.940508" />
    <g
       id="g10288"
       transform="translate(1.7511587,1.2219905)">
      <path
         style="color:#000000;fill:#000000;stroke-linejoin:bevel;-inkscape-stroke:none;paint-order:stroke fill markers"
         d="m 51.273437,23.183594 c -10.151998,0 -16.851562,8.586107 -16.851562,16.28125 0,4.136943 3.147529,7.541015 7.019531,7.541015 1.028151,0 1.667515,0.302111 2.060547,0.664063 0.393033,0.361951 0.611328,0.805005 0.611328,1.511719 -0.01627,4.778337 8.62e-4,0.593801 -0.11914,14.960937 l 4.564453,0.03906 C 48.678626,49.81094 48.661425,53.978337 48.677734,49.18945 v -0.0078 c 0,-1.858543 -0.751084,-3.645398 -2.082031,-4.871094 -1.330947,-1.225696 -3.170084,-1.869141 -5.154297,-1.869141 -1.210262,0 -2.455078,-1.042002 -2.455078,-2.976562 0,-4.925593 4.785718,-11.714844 12.287109,-11.714844 7.50138,0 12.287114,6.789191 12.287114,11.714844 0,1.934731 -1.244704,2.976562 -2.455082,2.976562 -1.984263,0 -3.823358,0.643402 -5.154297,1.869141 -1.330939,1.225739 -2.083985,3.01253 -2.083985,4.871094 v 0.0078 c 0.01631,4.788838 0.0011,0.621477 0.121094,14.992188 l 4.564453,-0.03906 c -0.120002,-14.367116 -0.102869,-10.182549 -0.11914,-14.960937 0,-0.706691 0.21825,-1.149711 0.611328,-1.511719 0.393078,-0.362008 1.032447,-0.664063 2.060547,-0.664063 3.871882,0 7.019532,-3.404243 7.019532,-7.541015 0,-7.695081 -6.699553,-16.279297 -16.851564,-16.279297 z"
         id="path7319" />
      <path
         style="color:#000000;fill:#ffcc00;stroke-width:0.264583;stroke-linejoin:bevel;-inkscape-stroke:none;paint-order:stroke fill markers"
         d="m 51.273354,24.53442 c -9.368139,0 -15.501894,8.054764 -15.501894,14.930872 0,3.485637 2.585603,6.190318 5.670454,6.190318 1.310886,0 2.304611,0.403225 2.975012,1.020609 0.670285,0.617281 1.046319,1.457667 1.046448,2.504758 0,1.8e-4 0,2.65e-4 0,5.29e-4 -0.0163,4.783519 1.38e-4,-0.0056 -0.11989,14.364499 l 1.865003,0.0155 c 0.120041,-14.371643 0.103579,-9.587355 0.11989,-14.3769 v -0.0031 c 0,-1.517912 -0.594383,-2.907019 -1.647962,-3.877281 -1.053579,-0.970264 -2.537024,-1.513604 -4.238501,-1.513604 -1.997413,0 -3.805452,-1.739451 -3.805452,-4.325316 0,-5.744628 5.351643,-13.06587 13.636892,-13.06587 8.285248,0 13.636897,7.321218 13.636897,13.06587 0,2.585937 -1.80799,4.325834 -3.805454,4.325834 -1.701498,0 -3.184916,0.543293 -4.238503,1.513602 -1.053587,0.970309 -1.64796,2.358843 -1.64796,3.876765 v 0.0031 c 0.01632,4.789524 -1.51e-4,0.0052 0.119888,14.3769 l 1.864487,-0.0155 c -0.120033,-14.370582 -0.103595,-9.580099 -0.11989,-14.364499 0,-1.047332 0.376536,-1.887834 1.046964,-2.505273 0.67043,-0.617437 1.66415,-1.020609 2.975014,-1.020609 3.084804,0 5.670454,-2.704754 5.670454,-6.190319 0,-6.876084 -6.133752,-14.930355 -15.501897,-14.930355 z"
         id="path3228" />
      <path
         style="fill:none;stroke:#000000;stroke-width:1.5;stroke-linecap:round;stroke-linejoin:round;stroke-miterlimit:4;stroke-dasharray:none;stroke-opacity:1"
         d="M 51.273246,27.198589 V 66.304342 H 41.31288 v 1.312955"
         id="path7887" />
    </g>
  </g>
</svg>
